<mxfile host="Electron" agent="Mozilla/5.0 (Windows NT 10.0; Win64; x64) AppleWebKit/537.36 (KHTML, like Gecko) draw.io/26.0.9 Chrome/128.0.6613.186 Electron/32.2.5 Safari/537.36" version="26.0.9">
  <diagram name="Page-1" id="Hr5Tx4CkvLegtLGabBMk">
    <mxGraphModel dx="696" dy="817" grid="1" gridSize="10" guides="1" tooltips="1" connect="1" arrows="1" fold="1" page="1" pageScale="1" pageWidth="850" pageHeight="1100" math="0" shadow="0">
      <root>
        <mxCell id="0" />
        <mxCell id="1" parent="0" />
        <mxCell id="Hr89XneyYPpMtfDoUE7p-1" value="" style="shape=table;startSize=0;container=1;collapsible=0;childLayout=tableLayout;fontSize=16;" vertex="1" parent="1">
          <mxGeometry x="120" y="100" width="250" height="120" as="geometry" />
        </mxCell>
        <mxCell id="Hr89XneyYPpMtfDoUE7p-2" value="" style="shape=tableRow;horizontal=0;startSize=0;swimlaneHead=0;swimlaneBody=0;strokeColor=inherit;top=0;left=0;bottom=0;right=0;collapsible=0;dropTarget=0;fillColor=none;points=[[0,0.5],[1,0.5]];portConstraint=eastwest;fontSize=16;" vertex="1" parent="Hr89XneyYPpMtfDoUE7p-1">
          <mxGeometry width="250" height="40" as="geometry" />
        </mxCell>
        <mxCell id="Hr89XneyYPpMtfDoUE7p-3" value="응시번호&lt;div&gt;&lt;font style=&quot;font-size: 12px; color: rgb(128, 128, 128);&quot;&gt;Exam Number&lt;/font&gt;&lt;/div&gt;" style="shape=partialRectangle;html=1;whiteSpace=wrap;connectable=0;strokeColor=inherit;overflow=hidden;fillColor=none;top=0;left=0;bottom=0;right=0;pointerEvents=1;fontSize=16;" vertex="1" parent="Hr89XneyYPpMtfDoUE7p-2">
          <mxGeometry width="83" height="40" as="geometry">
            <mxRectangle width="83" height="40" as="alternateBounds" />
          </mxGeometry>
        </mxCell>
        <mxCell id="Hr89XneyYPpMtfDoUE7p-4" value="필기&lt;div&gt;&lt;font style=&quot;font-size: 12px; color: rgb(128, 128, 128);&quot;&gt;Written Test&lt;/font&gt;&lt;/div&gt;" style="shape=partialRectangle;html=1;whiteSpace=wrap;connectable=0;strokeColor=inherit;overflow=hidden;fillColor=none;top=0;left=0;bottom=0;right=0;pointerEvents=1;fontSize=16;" vertex="1" parent="Hr89XneyYPpMtfDoUE7p-2">
          <mxGeometry x="83" width="84" height="40" as="geometry">
            <mxRectangle width="84" height="40" as="alternateBounds" />
          </mxGeometry>
        </mxCell>
        <mxCell id="Hr89XneyYPpMtfDoUE7p-5" value="합격여부&lt;div&gt;&lt;font style=&quot;font-size: 12px; color: rgb(128, 128, 128);&quot;&gt;P/F Status&lt;/font&gt;&lt;/div&gt;" style="shape=partialRectangle;html=1;whiteSpace=wrap;connectable=0;strokeColor=inherit;overflow=hidden;fillColor=none;top=0;left=0;bottom=0;right=0;pointerEvents=1;fontSize=16;" vertex="1" parent="Hr89XneyYPpMtfDoUE7p-2">
          <mxGeometry x="167" width="83" height="40" as="geometry">
            <mxRectangle width="83" height="40" as="alternateBounds" />
          </mxGeometry>
        </mxCell>
        <mxCell id="Hr89XneyYPpMtfDoUE7p-6" value="" style="shape=tableRow;horizontal=0;startSize=0;swimlaneHead=0;swimlaneBody=0;strokeColor=inherit;top=0;left=0;bottom=0;right=0;collapsible=0;dropTarget=0;fillColor=none;points=[[0,0.5],[1,0.5]];portConstraint=eastwest;fontSize=16;" vertex="1" parent="Hr89XneyYPpMtfDoUE7p-1">
          <mxGeometry y="40" width="250" height="40" as="geometry" />
        </mxCell>
        <mxCell id="Hr89XneyYPpMtfDoUE7p-7" value="10003" style="shape=partialRectangle;html=1;whiteSpace=wrap;connectable=0;strokeColor=inherit;overflow=hidden;fillColor=none;top=0;left=0;bottom=0;right=0;pointerEvents=1;fontSize=16;" vertex="1" parent="Hr89XneyYPpMtfDoUE7p-6">
          <mxGeometry width="83" height="40" as="geometry">
            <mxRectangle width="83" height="40" as="alternateBounds" />
          </mxGeometry>
        </mxCell>
        <mxCell id="Hr89XneyYPpMtfDoUE7p-8" value="40.31" style="shape=partialRectangle;html=1;whiteSpace=wrap;connectable=0;strokeColor=inherit;overflow=hidden;fillColor=none;top=0;left=0;bottom=0;right=0;pointerEvents=1;fontSize=16;" vertex="1" parent="Hr89XneyYPpMtfDoUE7p-6">
          <mxGeometry x="83" width="84" height="40" as="geometry">
            <mxRectangle width="84" height="40" as="alternateBounds" />
          </mxGeometry>
        </mxCell>
        <mxCell id="Hr89XneyYPpMtfDoUE7p-9" value="합격&lt;div&gt;&lt;font style=&quot;color: rgb(128, 128, 128); font-size: 12px;&quot;&gt;Pass&lt;/font&gt;&lt;/div&gt;" style="shape=partialRectangle;html=1;whiteSpace=wrap;connectable=0;strokeColor=inherit;overflow=hidden;fillColor=none;top=0;left=0;bottom=0;right=0;pointerEvents=1;fontSize=16;" vertex="1" parent="Hr89XneyYPpMtfDoUE7p-6">
          <mxGeometry x="167" width="83" height="40" as="geometry">
            <mxRectangle width="83" height="40" as="alternateBounds" />
          </mxGeometry>
        </mxCell>
        <mxCell id="Hr89XneyYPpMtfDoUE7p-10" value="" style="shape=tableRow;horizontal=0;startSize=0;swimlaneHead=0;swimlaneBody=0;strokeColor=inherit;top=0;left=0;bottom=0;right=0;collapsible=0;dropTarget=0;fillColor=none;points=[[0,0.5],[1,0.5]];portConstraint=eastwest;fontSize=16;" vertex="1" parent="Hr89XneyYPpMtfDoUE7p-1">
          <mxGeometry y="80" width="250" height="40" as="geometry" />
        </mxCell>
        <mxCell id="Hr89XneyYPpMtfDoUE7p-11" value="10021" style="shape=partialRectangle;html=1;whiteSpace=wrap;connectable=0;strokeColor=#23445d;overflow=hidden;fillColor=#bac8d3;top=0;left=0;bottom=0;right=0;pointerEvents=1;fontSize=16;" vertex="1" parent="Hr89XneyYPpMtfDoUE7p-10">
          <mxGeometry width="83" height="40" as="geometry">
            <mxRectangle width="83" height="40" as="alternateBounds" />
          </mxGeometry>
        </mxCell>
        <mxCell id="Hr89XneyYPpMtfDoUE7p-12" value="39.81" style="shape=partialRectangle;html=1;whiteSpace=wrap;connectable=0;strokeColor=inherit;overflow=hidden;fillColor=none;top=0;left=0;bottom=0;right=0;pointerEvents=1;fontSize=16;" vertex="1" parent="Hr89XneyYPpMtfDoUE7p-10">
          <mxGeometry x="83" width="84" height="40" as="geometry">
            <mxRectangle width="84" height="40" as="alternateBounds" />
          </mxGeometry>
        </mxCell>
        <mxCell id="Hr89XneyYPpMtfDoUE7p-13" value="합격&lt;div&gt;&lt;font style=&quot;color: rgb(128, 128, 128); font-size: 12px;&quot;&gt;Pass&lt;/font&gt;&lt;/div&gt;" style="shape=partialRectangle;html=1;whiteSpace=wrap;connectable=0;strokeColor=#23445d;overflow=hidden;fillColor=#bac8d3;top=0;left=0;bottom=0;right=0;pointerEvents=1;fontSize=16;" vertex="1" parent="Hr89XneyYPpMtfDoUE7p-10">
          <mxGeometry x="167" width="83" height="40" as="geometry">
            <mxRectangle width="83" height="40" as="alternateBounds" />
          </mxGeometry>
        </mxCell>
        <mxCell id="Hr89XneyYPpMtfDoUE7p-41" value="" style="group" vertex="1" connectable="0" parent="1">
          <mxGeometry x="380" y="70" width="349" height="199" as="geometry" />
        </mxCell>
        <mxCell id="Hr89XneyYPpMtfDoUE7p-14" value="&lt;font style=&quot;font-size: 16px;&quot;&gt;{ &quot;value&quot;: &quot;응시번호&quot;, &quot;col&quot;: 0, &quot;row&quot;: 0&amp;nbsp; }&lt;/font&gt;" style="text;html=1;align=center;verticalAlign=middle;resizable=0;points=[];autosize=1;strokeColor=none;fillColor=none;" vertex="1" parent="Hr89XneyYPpMtfDoUE7p-41">
          <mxGeometry width="300" height="30" as="geometry" />
        </mxCell>
        <mxCell id="Hr89XneyYPpMtfDoUE7p-15" value="&lt;font style=&quot;font-size: 16px;&quot;&gt;{ &quot;value&quot;: &quot;10021&quot;,&amp;nbsp; &amp;nbsp; &quot;col&quot;: 0, &quot;row&quot;: 2&amp;nbsp; }&lt;/font&gt;" style="text;html=1;align=center;verticalAlign=middle;resizable=0;points=[];autosize=1;strokeColor=none;fillColor=none;" vertex="1" parent="Hr89XneyYPpMtfDoUE7p-41">
          <mxGeometry y="50" width="300" height="30" as="geometry" />
        </mxCell>
        <mxCell id="Hr89XneyYPpMtfDoUE7p-16" value="&lt;font style=&quot;font-size: 16px;&quot;&gt;{ &quot;value&quot;: &quot;합격여부&quot;, &quot;col&quot;: 2, &quot;row&quot;: 0&amp;nbsp; }&lt;/font&gt;" style="text;html=1;align=center;verticalAlign=middle;resizable=0;points=[];autosize=1;strokeColor=none;fillColor=none;" vertex="1" parent="Hr89XneyYPpMtfDoUE7p-41">
          <mxGeometry y="100" width="300" height="30" as="geometry" />
        </mxCell>
        <mxCell id="Hr89XneyYPpMtfDoUE7p-17" value="&lt;font style=&quot;font-size: 16px;&quot;&gt;{ &quot;value&quot;: &quot;합격&quot;,&amp;nbsp; &amp;nbsp; &amp;nbsp; &amp;nbsp;&quot;col&quot;: 2, &quot;row&quot;: 2&amp;nbsp; }&lt;/font&gt;" style="text;html=1;align=center;verticalAlign=middle;resizable=0;points=[];autosize=1;strokeColor=none;fillColor=none;" vertex="1" parent="Hr89XneyYPpMtfDoUE7p-41">
          <mxGeometry y="150" width="300" height="30" as="geometry" />
        </mxCell>
        <mxCell id="Hr89XneyYPpMtfDoUE7p-18" value="&lt;font style=&quot;font-size: 12px; color: rgb(128, 128, 128);&quot;&gt;Exam Number&lt;/font&gt;" style="text;html=1;align=center;verticalAlign=middle;resizable=0;points=[];autosize=1;strokeColor=none;fillColor=none;" vertex="1" parent="Hr89XneyYPpMtfDoUE7p-41">
          <mxGeometry x="65" y="16" width="100" height="30" as="geometry" />
        </mxCell>
        <mxCell id="Hr89XneyYPpMtfDoUE7p-19" value="&lt;font style=&quot;font-size: 12px; color: rgb(128, 128, 128);&quot;&gt;P/F Status&lt;/font&gt;" style="text;html=1;align=center;verticalAlign=middle;resizable=0;points=[];autosize=1;strokeColor=none;fillColor=none;" vertex="1" parent="Hr89XneyYPpMtfDoUE7p-41">
          <mxGeometry x="75" y="119" width="80" height="30" as="geometry" />
        </mxCell>
        <mxCell id="Hr89XneyYPpMtfDoUE7p-20" value="&lt;font style=&quot;font-size: 12px; color: rgb(128, 128, 128);&quot;&gt;Pass&lt;/font&gt;" style="text;html=1;align=center;verticalAlign=middle;resizable=0;points=[];autosize=1;strokeColor=none;fillColor=none;" vertex="1" parent="Hr89XneyYPpMtfDoUE7p-41">
          <mxGeometry x="76" y="169" width="50" height="30" as="geometry" />
        </mxCell>
        <mxCell id="Hr89XneyYPpMtfDoUE7p-27" value="" style="rounded=0;whiteSpace=wrap;html=1;fillColor=none;" vertex="1" parent="Hr89XneyYPpMtfDoUE7p-41">
          <mxGeometry x="159" y="151" width="54" height="29" as="geometry" />
        </mxCell>
        <mxCell id="Hr89XneyYPpMtfDoUE7p-28" value="" style="rounded=0;whiteSpace=wrap;html=1;fillColor=none;" vertex="1" parent="Hr89XneyYPpMtfDoUE7p-41">
          <mxGeometry x="215" y="151" width="65" height="29" as="geometry" />
        </mxCell>
        <mxCell id="Hr89XneyYPpMtfDoUE7p-29" value="" style="rounded=0;whiteSpace=wrap;html=1;fillColor=none;" vertex="1" parent="Hr89XneyYPpMtfDoUE7p-41">
          <mxGeometry x="160" y="100" width="54" height="29" as="geometry" />
        </mxCell>
        <mxCell id="Hr89XneyYPpMtfDoUE7p-30" value="" style="rounded=0;whiteSpace=wrap;html=1;fillColor=none;" vertex="1" parent="Hr89XneyYPpMtfDoUE7p-41">
          <mxGeometry x="160" y="50" width="54" height="29" as="geometry" />
        </mxCell>
        <mxCell id="Hr89XneyYPpMtfDoUE7p-31" value="" style="rounded=0;whiteSpace=wrap;html=1;fillColor=none;" vertex="1" parent="Hr89XneyYPpMtfDoUE7p-41">
          <mxGeometry x="160" width="54" height="29" as="geometry" />
        </mxCell>
        <mxCell id="Hr89XneyYPpMtfDoUE7p-32" value="" style="rounded=0;whiteSpace=wrap;html=1;fillColor=none;" vertex="1" parent="Hr89XneyYPpMtfDoUE7p-41">
          <mxGeometry x="216" y="50" width="65" height="29" as="geometry" />
        </mxCell>
        <mxCell id="Hr89XneyYPpMtfDoUE7p-33" value="" style="endArrow=classic;startArrow=classic;html=1;rounded=0;entryX=0.5;entryY=1;entryDx=0;entryDy=0;exitX=0.5;exitY=0;exitDx=0;exitDy=0;" edge="1" parent="Hr89XneyYPpMtfDoUE7p-41" source="Hr89XneyYPpMtfDoUE7p-30" target="Hr89XneyYPpMtfDoUE7p-31">
          <mxGeometry width="50" height="50" relative="1" as="geometry">
            <mxPoint x="125" y="90" as="sourcePoint" />
            <mxPoint x="175" y="40" as="targetPoint" />
          </mxGeometry>
        </mxCell>
        <mxCell id="Hr89XneyYPpMtfDoUE7p-35" value="" style="endArrow=classic;startArrow=classic;html=1;rounded=0;entryX=0.5;entryY=1;entryDx=0;entryDy=0;exitX=0.5;exitY=0;exitDx=0;exitDy=0;" edge="1" parent="Hr89XneyYPpMtfDoUE7p-41" source="Hr89XneyYPpMtfDoUE7p-27" target="Hr89XneyYPpMtfDoUE7p-29">
          <mxGeometry width="50" height="50" relative="1" as="geometry">
            <mxPoint x="196" y="60" as="sourcePoint" />
            <mxPoint x="196" y="39" as="targetPoint" />
          </mxGeometry>
        </mxCell>
        <mxCell id="Hr89XneyYPpMtfDoUE7p-36" value="" style="endArrow=classic;startArrow=classic;html=1;rounded=0;" edge="1" parent="Hr89XneyYPpMtfDoUE7p-41" source="Hr89XneyYPpMtfDoUE7p-15" target="Hr89XneyYPpMtfDoUE7p-17">
          <mxGeometry width="50" height="50" relative="1" as="geometry">
            <mxPoint x="196" y="161" as="sourcePoint" />
            <mxPoint x="196" y="139" as="targetPoint" />
            <Array as="points">
              <mxPoint x="335" y="67" />
              <mxPoint x="335" y="120" />
              <mxPoint x="335" y="165" />
            </Array>
          </mxGeometry>
        </mxCell>
        <mxCell id="Hr89XneyYPpMtfDoUE7p-38" value="&lt;font style=&quot;font-size: 12px;&quot;&gt;1&lt;/font&gt;" style="ellipse;whiteSpace=wrap;html=1;aspect=fixed;" vertex="1" parent="Hr89XneyYPpMtfDoUE7p-41">
          <mxGeometry x="196" y="34" width="11" height="11" as="geometry" />
        </mxCell>
        <mxCell id="Hr89XneyYPpMtfDoUE7p-39" value="2" style="ellipse;whiteSpace=wrap;html=1;aspect=fixed;" vertex="1" parent="Hr89XneyYPpMtfDoUE7p-41">
          <mxGeometry x="196" y="135" width="11" height="11" as="geometry" />
        </mxCell>
        <mxCell id="Hr89XneyYPpMtfDoUE7p-40" value="3" style="ellipse;whiteSpace=wrap;html=1;aspect=fixed;" vertex="1" parent="Hr89XneyYPpMtfDoUE7p-41">
          <mxGeometry x="338" y="109.5" width="11" height="11" as="geometry" />
        </mxCell>
      </root>
    </mxGraphModel>
  </diagram>
</mxfile>
